<?xml version="1.0" encoding="UTF-8"?>
<svg id="Layer_1" data-name="Layer 1" xmlns="http://www.w3.org/2000/svg" viewBox="0 0 262.7 262.8">
  <defs>
    <style>
      .cls-1 {
        fill: maroon;
      }

      .cls-1, .cls-2, .cls-3, .cls-4, .cls-5, .cls-6, .cls-7, .cls-8, .cls-9 {
        fill-rule: evenodd;
      }

      .cls-10, .cls-3 {
        fill: #fff;
      }

      .cls-11 {
        fill: #002e6a;
      }

      .cls-2 {
        fill: #2062af;
      }

      .cls-4 {
        fill: #40ab35;
      }

      .cls-5 {
        fill: #03eefc;
      }

      .cls-6 {
        fill: #d19935;
      }

      .cls-7 {
        fill: #548a35;
      }

      .cls-8 {
        fill: #066730;
      }

      .cls-9 {
        fill: #bfde00;
      }
    </style>
  </defs>
  <path class="cls-11" d="M78.34,1.78c.46-1.13,1.71-2.11,2.96-1.67,2.56.73,4.47,2.73,6.24,4.61,1.99,2.29,3.72,4.87,4.69,7.76.95,3.71.69,7.62,1.58,11.35.92,3.38,3.89,5.51,6.15,7.98,2.19,2.34,3.14,5.47,4.53,8.29-5.35,1.59-10.52,3.68-15.54,6.1-.99-3.21-2.41-6.39-2.3-9.81.08-3.22.63-6.7-1.02-9.64-1.65-2.69-3.81-5.02-5.57-7.63-1.72-2.46-2.26-5.5-2.64-8.42-.23-2.98-.31-6.13.92-8.92Z"/>
  <path class="cls-11" d="M185.71,2.19c1.02-.39,2.3-.19,2.95.75,1.13,1.68,1.23,3.79,1.34,5.74.02,3.23-.48,6.48-1.59,9.52-.84,2.45-2.75,4.3-4.3,6.3-1.38,1.79-3.11,3.41-3.84,5.6-1.15,3.09-.35,6.43-.78,9.61-.31,2.84-1.66,5.41-2.55,8.09-4.92-2.65-10.04-4.92-15.34-6.68,1.56-2.79,2.69-5.91,5.01-8.2,2.3-2.32,5.25-4.28,6.31-7.53,1.03-3.69.93-7.61,1.98-11.3.94-2.55,2.51-4.83,4.25-6.9,1.86-2.03,3.9-4.1,6.57-5.01Z"/>
  <path class="cls-11" d="M122.39,39c17.83-1.81,36.14,1.79,52,10.12,10.78,5.61,20.44,13.39,28.21,22.73,8.41,10.12,14.66,22.02,18.18,34.7,4.23,15.1,4.57,31.28.86,46.52-3.13,13.06-9.13,25.42-17.47,35.94-7.09,8.99-15.91,16.59-25.77,22.39-11.3,6.63-24.01,10.84-37.03,12.28-15.15,1.7-30.71-.47-44.82-6.21-11.55-4.67-22.17-11.67-30.94-20.52-15.51-15.52-25.19-36.69-26.82-58.56-2.15-26.2,7.62-53.09,26.1-71.78,15.1-15.61,35.89-25.51,57.5-27.6ZM127.84,55.25c-16.11.76-31.94,6.76-44.46,16.94-16.67,13.3-27.14,33.97-28.14,55.27-.78,14.57,2.81,29.32,10.09,41.95,5.89,10.32,14.26,19.21,24.21,25.72,11.89,7.81,26.02,12.24,40.26,12.46,14.6.34,29.24-3.71,41.65-11.39,9.42-5.79,17.57-13.66,23.61-22.93,7.95-12.05,12.39-26.41,12.53-40.86.22-14.86-4.08-29.74-12.12-42.23-6.54-10.27-15.61-18.92-26.2-24.93-12.49-7.18-27.04-10.71-41.42-10Z"/>
  <path class="cls-11" d="M97.28,65.83c4.99-2.51,10.22-4.55,15.64-5.97.92,2.56,1.82,5.13,2.53,7.75.87,3.73-.08,7.69,1,11.39,2.55,6.33,7.18,11.52,10.31,17.54,1.23,2.96,2.46,5.93,3.39,8.99-5.21.21-10.25,2.15-14.44,5.21-1.02-2.28-1.94-4.6-2.84-6.93-1.31-3.19-1.61-6.66-2.27-10.01-.73-3.99-1.22-8.11-2.89-11.84-1.77-3.09-4.75-5.27-6.63-8.28-1.44-2.53-2.59-5.21-3.8-7.85Z"/>
  <path class="cls-11" d="M149.74,72.7c.02-4.22,1.94-8.08,3.34-11.97,5.31,1.74,10.49,3.9,15.33,6.72-1.36,2.77-2.6,5.62-4.3,8.21-1.85,2.43-4.31,4.32-6.13,6.78-.76,1.09-1.21,2.34-1.62,3.58-1.3,4.19-2.05,8.51-2.97,12.79-.82,4.62-3.07,8.77-4.96,13.01-2.15-1.68-4.42-3.25-6.96-4.28-2.3-1.01-4.77-1.53-7.24-1.96,1.53-3.25,2.61-6.72,4.45-9.82,3.13-4.97,7.01-9.47,9.72-14.71,1.38-2.56,1.15-5.56,1.36-8.36Z"/>
  <path class="cls-11" d="M5.47,73.1c4-.7,8.18-.24,12.03,1,2.97.88,5.19,3.14,7.55,5.03,1.73,1.38,3.44,2.98,5.63,3.56,2.83.79,5.79.33,8.68.53,2.97.24,5.64,1.66,8.42,2.59-2.62,4.91-4.9,10-6.64,15.29-2.03-.93-4.02-1.95-5.93-3.1-2.67-1.69-4.42-4.41-6.8-6.43-1.22-.99-2.66-1.72-4.2-2.02-2.85-.59-5.76-.75-8.61-1.29-2.33-.42-4.38-1.69-6.3-2.99-2.14-1.56-4.13-3.37-5.71-5.51-.83-1.21-1.67-2.58-1.6-4.1.21-1.67,2.07-2.28,3.48-2.57Z"/>
  <path class="cls-11" d="M243.31,80.33c2.35-1.8,5.35-2.42,8.22-2.81,3.08-.34,6.34-.42,9.26.76.89.45,2.03,1.17,1.91,2.32.04.96-.39,1.85-.87,2.66-1.3,2.06-3.08,3.78-4.98,5.28-2.2,1.68-4.59,3.21-7.29,3.91-3.39.66-6.89.59-10.28,1.29-3.37.79-5.6,3.62-7.97,5.92-2.4,2.37-5.66,3.47-8.67,4.84-1.62-5.34-3.64-10.54-6.1-15.55,3.16-.85,6.23-2.38,9.58-2.23,3.24-.04,6.74.63,9.73-.99,2.68-1.51,4.9-3.69,7.45-5.4Z"/>
  <path class="cls-11" d="M67.59,94c2.76,1.22,5.49,2.55,8.08,4.1,2.79,1.9,4.8,4.72,7.56,6.65,2.44,1.42,5.24,2.01,7.96,2.68,3.15.74,6.33,1.33,9.49,2.05,4.06.87,7.71,2.92,11.48,4.55-3.56,3.87-5.74,8.86-6.53,14.03-2.14-.84-4.25-1.75-6.35-2.67-3.34-1.43-6.18-3.72-9.14-5.77-3.16-2.18-6.26-4.55-9.84-6.02-3.74-1.18-7.79-.32-11.54-1.47-2.68-.82-5.29-1.81-7.9-2.82,1.63-5.35,3.99-10.45,6.74-15.31Z"/>
  <path class="cls-11" d="M189.11,100.39c2.43-1.35,4.97-2.48,7.52-3.58,2.58,4.96,4.73,10.18,6.06,15.62-2.44.75-4.82,1.67-7.28,2.36-3.35.92-6.85.3-10.25.74-1.62.19-3.08.97-4.51,1.69-3.12,1.66-6.01,3.71-9,5.58-2.16,1.4-4.29,2.91-6.69,3.88-2.54,1.07-5.16,1.94-7.71,2.97-.48-5.23-2.37-10.34-5.67-14.45,3.31-1.25,6.49-2.84,9.91-3.78,5.73-1.33,11.66-1.76,17.29-3.53,4.24-1.23,6.6-5.39,10.33-7.49Z"/>
  <path class="cls-11" d="M97.8,136.13c2.54-1.09,5.13-2.04,7.73-2.97.3,4.24,1.67,8.39,3.91,11.99.52.83,1.19,1.57,1.57,2.48-2.82,1.1-5.56,2.41-8.46,3.31-6.31,1.63-12.96,1.88-19.12,4.12-3.71,1.68-6,5.39-9.57,7.29-2.53,1.32-5.1,2.57-7.75,3.62-2.62-4.93-4.67-10.17-6.11-15.57,3.12-1.08,6.21-2.31,9.46-2.97,2.86-.39,5.78-.05,8.65-.39,1.46-.17,2.8-.8,4.09-1.45,3.6-1.9,6.94-4.24,10.37-6.43,1.71-1.07,3.37-2.24,5.24-3.03Z"/>
  <path class="cls-11" d="M157.16,133.82c3.35,1.47,6.82,2.66,10.03,4.43,5.01,3.08,9.48,7,14.71,9.73,3.92,2.25,8.65.94,12.85,2.11,2.49.72,4.9,1.67,7.33,2.58-1.5,5.37-3.83,10.48-6.52,15.35-2.05-.91-4.03-1.97-6.03-2.98-3.47-1.76-5.65-5.16-8.79-7.37-1.06-.7-2.26-1.14-3.46-1.52-5.24-1.67-10.73-2.33-16.02-3.77-3.49-1.1-6.72-2.88-10.1-4.27,3.36-4.03,5.5-9.06,6-14.29Z"/>
  <path class="cls-11" d="M114.45,151.67c.04-.37.52-.29.7-.09,3.92,3.17,8.8,5.12,13.82,5.61-1.27,2.87-2.35,5.83-3.77,8.63-3.16,5.34-7.36,10.02-10.2,15.55-2.08,3.86-.84,8.43-1.97,12.53-.81,2.81-1.9,5.53-2.94,8.27-5.35-1.6-10.49-3.87-15.36-6.58,1.03-2.39,2.21-4.71,3.45-7,1.67-3.23,4.77-5.33,6.94-8.18.93-1.2,1.45-2.65,1.91-4.08,1.64-5.29,2.31-10.81,3.78-16.13,1-2.92,2.38-5.7,3.64-8.52Z"/>
  <path class="cls-11" d="M133.73,157.17c5.23-.47,10.25-2.62,14.3-5.95,1.55,3.96,3.55,7.81,4.3,12.04.83,4.34,1.41,8.72,2.44,13.02.54,1.96,1.05,4.04,2.39,5.64,1.75,2.29,4.01,4.17,5.56,6.62,1.43,2.51,2.59,5.16,3.77,7.8-4.89,2.67-10.11,4.72-15.47,6.24-.93-2.23-1.62-4.55-2.34-6.85-1.25-3.83-.24-7.95-1.1-11.85-.33-1.11-.83-2.16-1.35-3.19-2.49-4.75-5.78-9.01-8.48-13.63-1.66-3.16-2.71-6.59-4.03-9.89Z"/>
  <path class="cls-11" d="M31.92,162.68c2.33-2.11,5.37-3.1,8.17-4.4,1.61,5.33,3.63,10.53,6.1,15.52-2.1.7-4.19,1.41-6.33,1.96-4.25,1.01-8.91-.83-12.93,1.28-3.24,1.84-5.88,4.57-9.11,6.43-3.67,1.68-7.82,2.18-11.82,1.93-1.92-.22-4.11-.43-5.5-1.92-.93-1.05-.37-2.52.21-3.59,1.68-2.82,4.21-5.04,6.91-6.87,1.8-1.19,3.72-2.29,5.85-2.73,2.8-.5,5.64-.61,8.45-.96,1.37-.16,2.74-.53,3.93-1.24,2.4-1.35,4.01-3.65,6.08-5.4Z"/>
  <path class="cls-11" d="M214.97,176.93c2.63-4.89,4.91-9.99,6.62-15.28,1.98.99,4,1.92,5.89,3.08,3.63,2.24,5.55,6.67,9.73,8.12,3.66,1.12,7.58.96,11.27,2,1.47.47,2.83,1.22,4.13,2.06,2.78,1.87,5.37,4.14,7.16,7,.74,1.22,1.42,2.83.65,4.19-1.21,1.4-3.21,1.63-4.94,1.82-3.58.28-7.21-.23-10.61-1.38-4.33-1.58-7.14-5.55-11.08-7.77-2.84-1.53-6.17-1.09-9.27-1.15-3.37-.02-6.44-1.54-9.54-2.7Z"/>
  <path class="cls-11" d="M85.82,214.98c4.89,2.66,10.01,4.88,15.28,6.66-1.02,2.02-1.98,4.09-3.19,6.01-2.25,3.48-6.48,5.39-7.95,9.41-1.26,3.8-.96,7.92-2.16,11.73-1.09,2.84-2.91,5.36-4.97,7.59-1.7,1.75-3.59,3.48-5.95,4.25-.93.35-2.07.12-2.69-.68-.95-1.26-1.22-2.88-1.37-4.41-.26-4.09.23-8.32,1.96-12.07,1.56-2.94,4.06-5.22,6.01-7.89,1.44-1.73,2.23-3.95,2.29-6.19.04-1.96-.07-3.91.11-5.86.22-3.02,1.61-5.76,2.63-8.55Z"/>
  <path class="cls-11" d="M158.26,222.66c5.34-1.57,10.5-3.68,15.52-6.06,1,3.23,2.44,6.43,2.29,9.88-.08,3.24-.61,6.76,1.12,9.7,1.66,2.67,3.8,5.01,5.56,7.62,1.23,1.76,1.77,3.88,2.22,5.95.57,3.32.79,6.79-.13,10.07-.36,1.3-1.11,2.78-2.6,2.99-2.15-.23-3.93-1.66-5.46-3.08-2.71-2.71-5.1-5.87-6.31-9.54-.93-3.73-.64-7.65-1.59-11.37-.92-3.31-3.88-5.33-6.06-7.78-2.18-2.38-3.25-5.48-4.56-8.38Z"/>
  <path class="cls-9" d="M119.69,131.64c1.43-.15,2.53-1.65,3.99-1.15.59.2,1.16.25,1.63-.26.26-.28.42-.67.69-.9.25-.21.63-.32.93-.46.71-.34,1.44-.75,2.22-.79.48-.03,1-.05,1.46.09.32.1.53.31.81.48.28.17.55.29.8.48.41.3.54.52,1.06.57.77.07,1.62-.17,2.36-.17.43,0,.93.17,1.34.29.16.05.43.11.57.19.15.09.25.31.43.4.25.14.68.21.89.41.22.21.16.57.36.78.17.18.47.21.67.27.3.08.48.24.75.42.2.13.46.19.64.32.15.11.21.26.37.36.41.24,1.27.14,1.47.66.12.31.02.9.06,1.24.05.44.11,1.02.03,1.46-.23,1.23-1.39,1.86-2.22,2.56-.3.26-.57.5-.84.78-.27.28-.48.6-.75.87-.55.55-1.22,1.08-1.84,1.6-1.05.86-2.43,1.38-3.64,1.96-.61.29-1.28.25-1.95.29-.61.03-1.02-.18-1.58-.35-.76-.22-1.57-.37-2.34-.61-.64-.2-1.09-.47-1.65-.85-.53-.36-1.1-.64-1.46-1.22-.2-.32-.5-.64-.84-.83-.68-.37-1.39-.83-2.05-1.3-1.03-.72-1.37-2.17-2.05-3.16-.21-.3-.51-.45-.7-.76-.24-.38-.39-.9-.49-1.35-.15-.64-.31-1.63.22-2.11.23-.21.56-.15.86-.19"/>
  <path class="cls-5" d="M118.63,127.24c.09-1.07,1.12-1.98,1.84-2.72,1-1.02,2.11-1.44,3.27-2.02,2.51-1.24,5.52-2.08,8.34-2.13,1.51-.03,2.65.43,4.09.64.52.07,1.63.56,2.13.77.25.1.39.31.62.5.51.42,1.07.83,1.64,1.18.75.47,1.52.8,1.83,1.7.18.53.38,1.04.53,1.6.32,1.19.84,2.25,1.1,3.53.13.66.17,1.29.17,1.99,0,.62.17,1.53-.05,2.1-.94.18-2.08-.12-3.01-.31-.45-.33-1.04-.63-1.57-.91-.56-.3-.94-.93-1.53-1.26-.73-.42-1.56-.56-2.34-.72-.84-.17-1.52-.08-2.33-.11-.31-.59-1.65-.81-2.23-.99-.84-.25-1.63-.63-2.56-.58-.82.05-1.57.35-2.23.83-.59.43-1.02,1.43-1.74,1.47-1.01.06-1.66-.57-2.69-.08-.83.4-1.6.62-2.36,1.1-1.15.74-1.48-.43-1.48-1.49,0-1.19-.12-2.38.23-3.49.11-.34.26-.61.38-.95"/>
  <path class="cls-8" d="M123.72,128.38c-.17-.04-.43-.04-.59,0,.26.52.64.95.86,1.45-.19,0-.45,0-.59,0,.09.26.27.48.42.71.15.24.29.5.45.69-.15.11-.41.02-.61.05.21.49.64.98.86,1.45-.2,0-3.69.09-3.74.03-.23.04-.27-.22-.41-.32.22-.38.46-.73.67-1.11-.18-.05-.42,0-.62-.02.26-.52.58-.94.86-1.44-.13-.06-.41,0-.61-.02.26-.53.6-.93.86-1.46-.17-.05-.46,0-.61-.02.45-.77.93-1.49,1.38-2.25.01,0,.01,0,.01.02.36.53.71,1.12,1.07,1.68.11.18.25.33.32.55"/>
  <path class="cls-8" d="M140.78,128.4c-.15-.02-.38-.02-.52,0,.22.3.57.55.76.85-.17,0-.39,0-.52,0,.08.15.24.28.37.42.13.14.25.29.4.4-.13.06-.36.01-.54.03.19.29.56.57.76.85-.18,0-.36,0-.54,0,.23.31.53.54.77.85-.18,0-.36,0-.54,0,.23.31.51.56.77.83-.73.04-1.52.01-2.27.03.04-.09.1-.15.15-.22-.55-.47-1.1-.93-1.66-1.38-.04-.04.07-.06.02-.09-.2.02-.24-.13-.36-.19.19-.23.4-.43.59-.65-.16-.03-.37,0-.55,0,.23-.3.52-.55.76-.84-.11-.04-.36,0-.54,0,.23-.31.53-.55.76-.86-.15-.03-.41,0-.54,0,.4-.45.82-.87,1.22-1.32.01,0,.01,0,.01.01.32.31.62.65.94.98.1.1.22.19.28.32"/>
  <path class="cls-7" d="M133.55,130.35c1.13-.24,2.09-.58,3.3-.74.5-.07,3.94,2.92,4.07,3.04.39.34.42,1.07.87,1.34.63.38,1.36.66,2.13.84.03-.02,0-.1.01-.14.02.04.04.11.01.14.03.04.1.05.16.06-1.03.04-1.88-.3-2.66-.6-.78-.3-1.45-.73-2.09-1.18-.6-.42-2.39-1.43-2.55-1.46-.3-.06-2.59.71-2.97.69-.26-.02-3.8-1.35-4.09-1.35-.19,0-4.26,1.44-5.03,2.06-.73-.08-2.39-.49-3.19-.17-.83.33-1.56.73-2.3,1.1-.04-.28-.05-.6-.05-.92.26-.14.49-.37.71-.57.72-.64,1.75-1.28,2.91-1.8.74-.33.1-.27,2.08.4.44-.43,3.43-2.35,5-2.68.38-.08,2.6,1.3,3.66,1.92"/>
  <path class="cls-7" d="M129.43,135.1c1.36-.37,2.92-.51,3.21-.57.14-.03.93-.27.98-.62.03-.2-.18-.3-.25-.37-.08-.07-1.64-.6-2.19-1.25,0,0-.04-.04-.04-.05.22.07.53.2.77.24.74.13,1.69.16,2.25.68.17.16.31.41.3.93-.04.16-.1.25-.14.41-.39.63-.91.85-1.39,1.19"/>
  <path class="cls-7" d="M132.97,135.65c.15,0-2.37,1.07-1.93,1.51.08.08.21.14.31.17.09.03.2.08.3.09.25.04,3.79.81,4.06.94.53.27.99.74,1.39,1.4.14.38-2.93,1.65-2.93,1.55,0-.12-.1-.31-.16-.39-.19-.3-.49-.48-.72-.59-.24-.11-.92-.33-1-.34-.11-.02-.23-.03-.35-.08-.12-.04-.79-.15-.99-.21-.21-.06-.45-.1-.67-.13-.34-.05-.67-.14-1-.21-.1-.02-.19-.04-.29-.08-.62-.22-1.22-.37-1.7-1.09-.08-.13-.23-.45-.24-.64-.02-.37.14-.69.19-.93.26-.51.57-.79.95-1.03.1-.07,1.14-.49,1.25-.52"/>
  <path class="cls-6" d="M130.04,135.09c1.27-.31,1.83-.28,2.1-.34.07-.01.83-.13,1.11-.24.13-.05.93-.27.98-.62.03-.2-.18-.3-.25-.37-.08-.07-1.64-.6-2.19-1.25,0,0-.04-.04-.04-.05.22.07.53.2.77.24.74.13,1.69.16,2.25.68.17.16.31.41.3.93-.04.16-.1.25-.14.41-.39.63-.91.85-1.39,1.19"/>
  <path class="cls-6" d="M133.59,135.65c.15,0-2.37,1.07-1.93,1.51.08.08.21.14.31.17.09.03.2.08.3.09.25.04.51.09.76.12.4.04.76.08,1.17.16.09.02.18.02.26.04.1.03.14.04.32.08.23.07.5.14.73.21.27.08.55.21.82.34.53.27.99.74,1.39,1.4.14.38-3.14,1.99-3.07,1.9.05-.07.14-.25.14-.35,0-.12-.1-.31-.16-.39-.19-.3-.49-.48-.72-.59-.24-.11-.92-.33-1-.34-.11-.02-.23-.03-.35-.08-.12-.04-1.44-.3-1.67-.34-.34-.05-.67-.14-1-.21-.1-.02-.19-.04-.29-.08-.62-.22-1.22-.37-1.7-1.09-.08-.13-.23-.45-.24-.64-.02-.37.14-.69.19-.93.26-.51.57-.79.95-1.03.1-.07,1.14-.48,1.25-.52"/>
  <path class="cls-4" d="M141.31,133.86c-.73-.15-1.16-.62-1.11-1.72.04-.9.38-1.87.69-2.55.11-.25.24-.52.38-.67.16-.17.4-.24.6-.06.32.29.51.92.68,1.45.23.7.42,1.4.37,2.3-.04.81-.49,1.19-1.12,1.27"/>
  <path class="cls-1" d="M141.9,135.18s-.05,0-.07,0c-.2-.03-.45,0-.67,0,.06-.75.09-1.54.15-2.29-.33-.29-.67-.58-1.01-.86h0c.19.04.36.16.53.26.08.05.17.1.25.15.08.05.16.13.24.12.02-.24.03-.5.05-.74-.26-.25-.59-.51-.82-.75.31.13.54.34.83.5.02-.26.03-.52.05-.77-.12-.1-.24-.22-.37-.33-.13-.11-.28-.19-.35-.32.25.13.48.3.73.43,0-.23.04-.53.05-.74,0-.07-.05-.22.07-.21.04.3.04.63.06.95.29-.12.49-.32.8-.42-.11.09-.24.2-.39.32-.1.08-.36.22-.39.34-.01.05.01.12.02.18.01.18,0,.4.05.57.29-.17.55-.37.87-.51-.12.12-.26.24-.43.38-.09.07-.4.29-.43.39-.02.06.01.14.02.21,0,.18,0,.38.05.54.17-.1.34-.21.52-.31.18-.1.35-.22.53-.27-.33.31-.72.56-1.05.87.04.77.1,1.52.13,2.3"/>
  <path class="cls-1" d="M136.81,134.48c-.06-.09-.1-.17-.17-.25.1-.26-.25-.42-.08-.58.3.04.51.17.47.56.13.2.31.36.42.59.06.36.25.7.12,1-.1.23-.41.29-.62.44-.17.11-.37.36-.33.75,0,.05.04.15.05.2.05.29.04.61.08.92.1.77.22,1.68.3,2.5.03.28.04.56.07.84.03.27.04.56.08.81.05.28.18.3.41.43.1.06.32.15.28.28-.04.13-.45.08-.65.07-.14,0-.34.02-.4-.04-.04-.13.02-.24.04-.35-.04-.08-.18,0-.24-.04-.13-.65-.09-1.45-.2-2.11-.1-.61-.33-1.15-.44-1.69-.07.04-.08.14-.1.2-.16.5-.34,1.04-.46,1.6-.14.63-.31,1.28-.46,1.89,0,.06-.09,0-.1.04.05.26.09.6-.23.57h-.17c-.13-.04-.37.03-.42-.09-.01-.3.22-.34.38-.46-.01-.13-.13-.14-.15-.26.3-.93.49-2,.68-3.06.11-.6.19-1.12.14-1.8-.02-.23,0-.46-.08-.66-.22.53-.45,1.29-.75,1.78-.11.18-.26.36-.32.53-.04.14,0,.34-.13.37-.1.02-.14-.07-.2-.12,0-.21.01-.44-.04-.59.11-.22.21-.47.31-.73.1-.24.24-.46.33-.72.09-.26.15-.54.25-.8.05-.13.1-.25.15-.38.05-.13.08-.28.14-.39.14-.27.43-.32.69-.45.04-.18-.07-.27-.16-.38-.07-.1-.15-.21-.19-.34-.05-.17-.04-.35-.08-.54-.02-.08-.06-.14-.07-.23,0-.26.17-.37.29-.53.06.02.16,0,.23-.06,0-.04,0-.08,0-.12.02,0,.04.03.06.03.1.14.3.02.49.05.29.05.35.3.34.73,0,.13,0,.28-.02.38-.01.05-.06.1-.08.16-.02.06,0,.12-.02.16-.09.25-.32.37-.17.69.14.06.33.08.43.19.11-.06.29-.09.45-.06"/>
  <path class="cls-1" d="M131.79,136.59s.04,0,.06,0h0c.2.07.42.11.61.17.14.22.31.41.27.78-.01.12-.07.26-.13.35-.18.3-.54.33-.48.71.12.14.36.18.55.28.05.03.08.07.13.09.28.12.59.01.83-.1.04.04-.01.12.05.15.09,0,.15-.02.23-.03.14.17.03.38-.11.41-.16.02-.33-.11-.54-.13-.13-.01-.29-.02-.41,0-.16.03-.17.15-.34.15-.21.19-.26.49-.27.87,0,.1.02.22,0,.32-.01.06-.06.11-.08.16-.07.29-.04.6-.1.92-.02.11-.06.26-.1.41-.04.14-.1.3-.07.39.05.2.34.2.36.42-.13.1-.61.15-.71,0,0-.08.03-.12.04-.19-.16-.16-.04-.58,0-.89.03-.27.06-.52.05-.76-.21.27-.37.6-.54.95-.08.15-.18.33-.25.5-.1.24-.16.49-.34.62-.03.05,0,.14-.04.19-.22.07-.65.1-.73-.12,0-.02,0-.04,0-.05.08-.14.28-.14.41-.23.03-.06-.03-.09-.03-.16.26-.46.5-1.04.74-1.56.12-.25.3-.49.31-.81,0-.06-.02-.12-.01-.18.01-.18.11-.37.09-.58-.25-.19-.6-.21-.92-.34-.14-.06-.26-.14-.45-.16,0-.12-.02-.27.04-.34.29.05.92.18,1.31.07.23-.06.56-.2.42-.56-.08-.01-.19.04-.27-.01-.11-.08-.13-.47-.11-.69.02-.19.07-.44.12-.58.04-.1.13-.21.13-.35.07-.05.3.1.28-.08"/>
  <path class="cls-1" d="M128.27,134.19c.03.07.09.31.13.59.05.39.11.8,0,.82-.15.03-.3.02-.31.05-.06.1.21.08.31.1.09.02.25.06.3.11.12.1.27.42.35.61.11.26.2.46.32.66.12.19.25.43.34.65.09.21.16.54.28.69.12.14.33.17.35.43,0,.15,0,.31,0,.46-.12.05-.25.09-.39.03-.08-.14,0-.3-.03-.45-.02-.16-.2-.43-.27-.58-.28-.56-.73-1-1.04-1.49-.08.13-.08.29-.12.43-.05.18-.15.34-.16.54-.01.2.05.46.11.67.16.58.42,1.19.58,1.71-.13.07-.34-.01-.47.04-.09.04-.09.11-.14.19,0,.37,0,.74,0,1.11,0,.56-.1,1.19.17,1.46.09.09.43.16.38.36-.02.09-.24.11-.37.06-.06-.03-.16-.15-.24-.2-.13-.07-.26-.05-.28-.23,0-.1.05-.25.06-.38.05-.59-.04-1.29-.14-1.86-.02-.11-.07-.52-.19-.51-.09,0-.15.33-.19.47-.09.39-.13.72-.2,1.11-.03.19-.11.36-.12.53-.02.17.03.33-.06.42-.05.04-.13.03-.2.06-.1.04-.17.19-.3.25-.12.05-.27.05-.38-.07.11-.33.45-.28.61-.57.08-.16.11-.41.14-.68.04-.52.06-.99,0-1.49-.23,0-.49.11-.71.05.16-.34.34-.73.5-1.15.11-.29.21-.62.3-.93.03-.11.09-.22.1-.31.05-.41-.07-.77-.25-1-.09.2-.11.42-.16.62-.06.2-.12.4-.2.58-.17.36-.42.62-.61.95-.18.13-.44.32-.7.18,0-.07,0-.14,0-.2.11-.09.23-.16.42-.16.19-.36.46-.72.58-1.23.06-.24.1-.5.16-.74.09-.38.09-.86.36-1,.05-.03.14-.06.19-.08.34-.09.36-.15.3-.18-.01,0-.1,0-.26,0-.07,0-.15-.07-.11-.29,0-.06.11-.62.14-.87.05-.32.21-.56.3-.59.17-.06.15-.09.32-.09.13,0,.26,0,.36.08.14.11.16.22.18.28"/>
  <path class="cls-3" d="M131.55,130.6c-.22,0-.44,0-.66,0-.03-1.29-.02-2.62-.04-3.93-.42-.03-.9,0-1.35,0,0-.22,0-.44,0-.66.45,0,.9,0,1.35,0,0-.42,0-.85,0-1.27.23,0,.44-.02.66,0,.03.39,0,.83.02,1.24.43.04.96-.02,1.39.02,0,.21,0,.41,0,.62-.51.04-.94-.01-1.39.04,0,1.32.02,2.63.02,3.95"/>
  <path class="cls-4" d="M122.41,130.74c-.16,0-.42,0-.58,0,.28.42.57.82.81,1.2-.17,0-.45,0-.58.01.14.22.7,1,.83,1.15-.13.04-.53.03-.7.05.28.4.67.84.93,1.19-.18,0-3.48.17-3.6.08.19-.32.51-.93.7-1.25-.16-.04-.52,0-.69-.01.29-.42.67-.79.89-1.19-.12-.02-.5,0-.67,0,.28-.43.56-.77.83-1.2-.16-.01-.47-.01-.61-.02.4-.63.81-1.23,1.21-1.86.01,0,.01,0,.01.02.32.44,1.12,1.66,1.22,1.84"/>
  <path class="cls-2" d="M130.45,115.34c.56,0,1.13,0,1.69-.01,6.01.37,10.49,2.48,13.52,6.11,1.02,1.22,1.88,2.63,1.98,4.74,0,.28,0,.56,0,.84-.18,2.81-1.11,4.98-2.11,7-1,2.02-2.2,3.83-3.46,5.59-1.24,1.74-2.58,3.43-4.03,4.99-.73.79-1.59,1.41-2.6,1.88-1.02.47-2.16.87-3.49.96-.32,0-.64,0-.96,0-2.64-.22-4.62-1.22-6.11-2.77-.73-.76-1.42-1.58-2.1-2.4-.68-.83-1.36-1.66-1.99-2.51-1.27-1.73-2.5-3.55-3.52-5.54-1.03-2.01-1.95-4.17-2.18-6.97,0-.28,0-.57,0-.85.03-.52.1-1.02.21-1.49.31-1.38.96-2.34,1.73-3.28,2.98-3.65,7.46-5.85,13.43-6.28M130.91,120.66c-1.77.01-3.19.37-4.52.87-1.93.72-3.59,1.91-4.8,3.38-1.22,1.49-2.2,3.34-2.18,6.11,0,.85.18,1.68.41,2.39.67,2.06,1.95,3.63,3.46,4.79,1.07.82,2.19,1.36,3.54,1.88.31.12.68.22,1.03.3,1.74.41,4.13.57,5.99.12.37-.09.73-.15,1.08-.26.34-.12.69-.21,1.03-.33.64-.23,1.26-.54,1.84-.88.57-.33,1.13-.7,1.61-1.12,1.69-1.48,3.11-3.32,3.49-6.12.18-1.32-.01-2.68-.33-3.74-.21-.71-.54-1.36-.87-1.91-.71-1.2-1.56-2.09-2.59-2.9-1.03-.81-2.2-1.42-3.54-1.88-1.29-.44-2.92-.8-4.64-.7,0,0-.02,0-.03,0"/>
  <path class="cls-1" d="M130.44,115.35c.57,0,1.15,0,1.72-.01,6.01.36,10.45,2.49,13.48,6.08,1.01,1.2,1.89,2.6,2,4.69,0,.33,0,.67,0,1-.22,2.78-1.11,4.96-2.12,6.97-1.01,2-2.2,3.82-3.46,5.56-1.25,1.73-2.58,3.42-4.02,4.97-.73.79-1.59,1.39-2.6,1.87-1.01.48-2.15.87-3.47.96-.33,0-.65,0-.98,0-2.63-.22-4.62-1.21-6.09-2.76-1.46-1.53-2.81-3.21-4.08-4.92-1.28-1.73-2.48-3.53-3.51-5.53-1.03-1.99-1.98-4.14-2.21-6.92,0-.33,0-.67,0-1,.06-.97.29-1.97.63-2.72.36-.77.82-1.42,1.31-2.01,3-3.61,7.43-5.84,13.4-6.25M127.22,116.21c-4.28.9-7.56,2.87-9.9,5.74-.62.76-1.13,1.47-1.46,2.5-.33,1.03-.44,2.29-.27,3.58.16,1.17.46,2.22.82,3.2.71,1.92,1.65,3.66,2.67,5.29,1.53,2.45,3.26,4.65,5.11,6.75.62.7,1.22,1.41,1.96,1.97,1.4,1.06,3.47,1.96,5.93,1.74,1.12-.1,2.14-.4,3.05-.83.91-.43,1.68-.92,2.35-1.57.65-.64,1.25-1.38,1.85-2.09,1.81-2.16,3.47-4.43,4.91-6.94.97-1.68,1.86-3.46,2.45-5.49.31-1.06.55-2.17.54-3.46-.01-2.02-.7-3.33-1.56-4.45-.85-1.12-1.89-2.09-2.99-2.91-2.2-1.64-5.07-2.79-8.36-3.25-1.11-.16-2.39-.26-3.63-.19-1.28.07-2.39.19-3.48.42"/>
  <path class="cls-1" d="M130.75,120.56c.26,0,.52,0,.78,0,3.32.09,5.86,1.12,7.84,2.66,1.96,1.53,3.55,3.6,3.86,6.87,0,.39,0,.77,0,1.16-.16,2.5-1.21,4.25-2.46,5.68-.64.73-1.36,1.34-2.17,1.87-.54.35-1.1.69-1.73.96-1.53.66-3.32,1.16-5.46,1.2-.11,0-.21,0-.32,0-1.71-.05-3.21-.27-4.53-.76-.33-.12-.65-.25-.96-.38-1.53-.63-2.86-1.59-3.92-2.77-.43-.48-.83-.97-1.18-1.52-.71-1.12-1.22-2.46-1.35-4.11,0-.39,0-.77,0-1.16,0,0,0,0,.01,0,.17-2.45,1.14-4.26,2.4-5.62,2.14-2.31,5.01-3.89,9.17-4.07M126.52,121.65c-1.32.48-2.46,1.14-3.47,1.96-1.02.84-1.81,1.71-2.5,2.93-.64,1.12-1.14,2.59-1.13,4.34.01,1.73.56,3.15,1.21,4.28.66,1.15,1.56,2.13,2.57,2.89.79.59,1.6,1.11,2.54,1.5.31.13.63.25.97.38.64.24,1.36.41,2.13.54,2.36.42,5.08.1,6.99-.62,1.96-.75,3.6-1.79,4.87-3.26.42-.49.8-1.04,1.12-1.61.65-1.15,1.16-2.54,1.15-4.32-.02-2.57-1.14-4.54-2.35-5.9-1.29-1.44-2.95-2.48-4.92-3.19-1.31-.47-2.88-.77-4.59-.74-1.79.03-3.24.33-4.58.82"/>
  <path class="cls-10" d="M128.35,144.29l.45.24c-.11.28-.26.48-.45.6-.19.12-.41.16-.67.12-.32-.05-.56-.21-.73-.49-.17-.28-.23-.63-.17-1.05.06-.45.21-.78.45-1,.24-.22.53-.3.87-.25.29.05.52.18.67.4.09.13.15.31.18.54l-.5.05c0-.14-.05-.26-.13-.36-.08-.1-.18-.15-.31-.17-.18-.03-.33.02-.46.15-.13.13-.22.35-.26.67-.05.34-.03.59.06.76.09.16.22.26.4.28.13.02.25,0,.35-.09.11-.08.19-.21.26-.4"/>
  <polygon class="cls-10" points="129.48 145.56 129.51 142.77 130.02 142.77 129.99 145.09 131.25 145.1 131.24 145.58 129.48 145.56"/>
  <path class="cls-10" d="M131.78,142.74h.5s0,1.51,0,1.51c0,.24,0,.4.02.47.02.11.07.21.15.27.08.07.19.1.33.1.14,0,.25-.03.32-.1.07-.07.12-.15.13-.24.01-.1.02-.25.02-.48v-1.55s.49,0,.49,0v1.47c0,.34,0,.57-.03.71-.03.14-.08.26-.15.35-.07.1-.17.17-.29.23-.12.06-.28.09-.48.09-.24,0-.42-.03-.54-.09-.12-.06-.22-.14-.29-.24-.07-.1-.12-.2-.14-.31-.03-.16-.05-.4-.05-.71v-1.49Z"/>
  <path class="cls-10" d="M134.31,142.63l.92-.18c.18-.04.32-.05.41-.05.09,0,.18.02.26.06.08.04.15.1.21.18.06.08.1.18.12.29.02.12.01.24-.03.35s-.11.2-.2.27c.15.02.27.08.36.17.09.1.15.22.18.37.02.12.02.24-.01.36s-.08.22-.15.31c-.07.08-.17.14-.29.18-.08.02-.26.07-.56.13l-.78.15-.45-2.58ZM134.85,142.97l.1.6.3-.06c.18-.04.29-.06.34-.07.08-.03.13-.07.17-.13.04-.06.05-.13.03-.22-.01-.08-.04-.14-.09-.18-.05-.04-.11-.06-.19-.06-.05,0-.18.03-.4.07l-.27.05ZM135.03,144l.12.69.43-.08c.17-.03.27-.06.32-.08.07-.03.12-.07.15-.14.03-.06.04-.14.03-.23-.01-.08-.04-.14-.08-.19-.04-.05-.1-.08-.17-.09-.07-.01-.21,0-.42.04l-.37.07Z"/>
  <path class="cls-10" d="M122.07,122.82l-.44.32-.5-.39-.8.58.16.63-.43.31-.67-2.82.43-.31,2.25,1.68ZM120.75,122.47l-.81-.64.27,1.03.55-.4Z"/>
  <polygon class="cls-10" points="122.58 122.3 120.74 120.57 121.16 120.31 122.5 121.61 122.11 119.74 122.52 119.49 122.99 122.05 122.58 122.3"/>
  <polygon class="cls-10" points="124.06 121.41 123.04 119.09 124.56 118.33 124.74 118.72 123.63 119.27 123.85 119.79 124.89 119.27 125.06 119.66 124.03 120.18 124.31 120.81 125.46 120.24 125.63 120.63 124.06 121.41"/>
  <polygon class="cls-10" points="126.06 120.46 125.3 117.97 125.73 117.82 127.15 119.17 126.64 117.51 127.05 117.36 127.82 119.85 127.37 120.01 125.98 118.69 126.47 120.32 126.06 120.46"/>
  <polygon class="cls-10" points="128.81 119.62 128.35 117.42 127.65 117.59 127.55 117.14 129.43 116.69 129.53 117.13 128.83 117.3 129.29 119.51 128.81 119.62"/>
  <path class="cls-10" d="M130.14,116.8h.5s.04,1.49.04,1.49c0,.24.02.39.03.46.02.11.08.2.16.27.08.07.19.1.33.09.14,0,.25-.04.32-.11.07-.07.11-.15.12-.24.01-.1.02-.25.01-.47l-.04-1.54h.5s.04,1.44.04,1.44c0,.33,0,.57-.02.71-.02.14-.07.26-.14.35-.07.1-.16.17-.28.23-.12.06-.28.09-.47.1-.24,0-.41-.02-.54-.08-.12-.06-.22-.13-.29-.23-.07-.1-.12-.2-.15-.3-.04-.16-.06-.39-.07-.7l-.04-1.48Z"/>
  <path class="cls-10" d="M132.66,119.45l.34-2.63.99.14c.25.04.43.09.53.15.11.06.19.16.24.29.05.13.07.27.05.43-.03.2-.1.35-.22.47-.12.11-.28.17-.49.18.09.08.17.17.22.26.06.09.13.24.21.47l.22.55-.56-.08-.27-.62c-.09-.22-.16-.36-.2-.42-.04-.06-.08-.1-.13-.13-.05-.03-.13-.05-.23-.06h-.1s-.14,1.08-.14,1.08l-.47-.07ZM133.32,118l.35.05c.23.03.37.04.43.03.06-.01.11-.04.15-.09.04-.05.06-.11.07-.19.01-.09,0-.16-.04-.22-.04-.06-.09-.1-.16-.13-.04-.01-.15-.03-.34-.06l-.37-.05-.09.67Z"/>
  <polygon class="cls-10" points="135.04 119.77 135.88 117.37 137.45 117.99 137.31 118.39 136.16 117.94 135.98 118.47 137.05 118.89 136.91 119.3 135.84 118.88 135.61 119.53 136.8 120 136.66 120.4 135.04 119.77"/>
  <path class="cls-10" d="M137.12,120.5l1.21-2.22.84.51c.21.13.35.24.43.34.07.1.11.22.11.35,0,.14-.03.27-.1.4-.09.17-.21.28-.36.33-.15.06-.31.04-.5-.03.06.11.09.22.11.32.02.1.03.27.03.5v.58s-.47-.29-.47-.29l-.02-.66c0-.24-.02-.39-.03-.46-.01-.07-.04-.12-.07-.17-.03-.04-.1-.09-.19-.15l-.08-.05-.51.93-.4-.24ZM138.22,119.46l.29.18c.19.12.32.18.37.19.06.01.11,0,.16-.03s.09-.08.13-.14c.04-.07.06-.15.05-.21-.01-.07-.04-.13-.1-.18-.03-.02-.12-.09-.29-.19l-.31-.19-.31.56Z"/>
  <path class="cls-10" d="M139.5,120.85c.12-.24.26-.42.4-.55.11-.09.23-.16.36-.21.13-.05.26-.07.38-.06.16.01.33.07.5.17.31.18.5.43.58.75.08.32.02.67-.18,1.06-.19.38-.44.62-.73.73-.29.11-.59.08-.9-.1-.31-.18-.5-.43-.58-.75-.07-.32-.02-.67.17-1.04M139.99,121c-.17.24-.25.47-.24.67s.1.37.25.49.32.16.51.11c.19-.05.37-.2.54-.45.17-.25.25-.47.24-.66-.01-.2-.1-.36-.26-.48-.16-.12-.33-.16-.51-.12-.18.05-.36.19-.53.44"/>
  <path class="cls-10" d="M141.33,122.65l.33.31c-.1.13-.14.25-.14.37,0,.11.05.22.14.33.1.11.19.17.29.18.1.01.18-.01.24-.08.04-.04.07-.09.07-.14,0-.05,0-.12-.03-.2-.02-.05-.08-.17-.17-.35-.11-.23-.17-.42-.17-.56,0-.2.07-.36.21-.5.09-.09.19-.14.31-.16.12-.02.24,0,.36.05.12.05.24.15.35.28.19.22.28.43.28.63,0,.2-.08.38-.23.54l-.32-.33c.08-.1.11-.19.11-.28,0-.09-.05-.18-.13-.28-.09-.1-.18-.16-.27-.18-.06-.01-.11,0-.15.05-.04.04-.06.09-.06.15,0,.08.05.22.16.43.11.21.17.37.2.5.03.12.02.24-.01.36-.03.12-.11.23-.22.34-.1.1-.22.16-.35.19-.13.03-.27.01-.39-.05-.13-.06-.26-.16-.39-.31-.19-.22-.28-.43-.28-.65s.09-.43.26-.64"/>
  <path class="cls-11" d="M132.14,115.33c6.01.37,10.49,2.48,13.52,6.11.49.59.94,1.22,1.29,1.95,0,.02.02.04.03.06.02.04.03.08.05.11.33.73.55,1.56.61,2.55,0,.02,0,.05,0,.07h0c0,.28,0,.56,0,.84h0s0,.06,0,.09c-.22,2.78-1.11,4.96-2.12,6.97-1.01,2-2.2,3.82-3.46,5.56-1.25,1.73-2.58,3.42-4.02,4.97-.73.79-1.59,1.39-2.6,1.87-1.01.48-2.15.87-3.47.96-.33,0-.65,0-.98,0-2.63-.22-4.62-1.21-6.09-2.76-1.46-1.53-2.81-3.21-4.08-4.92-.89-1.2-1.74-2.43-2.52-3.74-.36-.59-.7-1.2-1.02-1.83-.25-.48-.48-.97-.71-1.47,0-.01-.01-.02-.02-.03-.02-.04-.03-.08-.05-.11-.69-1.54-1.24-3.23-1.41-5.26,0-.33,0-.67,0-1,.06-.97.29-1.97.63-2.72.07-.16.15-.3.23-.45.01-.03.03-.05.04-.08.01-.02.03-.04.04-.07.04-.07.08-.13.12-.2,0-.01.02-.03.02-.04.04-.07.09-.14.14-.21,0-.01.01-.02.02-.03.05-.07.09-.14.14-.2.04-.06.08-.11.12-.17,0,0,0-.01.01-.02.1-.13.2-.26.3-.39.04-.05.07-.09.11-.14,2.98-3.65,7.46-5.85,13.43-6.28.56,0,1.13,0,1.69-.01M132.14,111.41h-.45s-1.27.01-1.27.01c-.09,0-.17,0-.26.01-6.88.5-12.47,3.17-16.18,7.71-.04.05-.09.11-.13.16-.14.17-.27.34-.4.51l-.02.03c-.05.07-.1.14-.16.22-.06.09-.13.19-.2.28l-.04.05c-.07.1-.13.2-.2.3l-.03.05c-.07.11-.13.21-.18.31-.02.03-.03.06-.05.09-.03.05-.05.09-.07.12h0c-.13.24-.24.46-.34.68-.56,1.19-.91,2.67-.99,4.16,0,.08,0,.16,0,.25v.5s0,.5,0,.5c0,.1,0,.2.01.3.18,2.21.73,4.28,1.73,6.52v.02s.06.1.06.1c0,0,0,.01,0,.02v.03c.24.51.5,1.06.81,1.65.34.66.72,1.34,1.15,2.06.79,1.32,1.68,2.65,2.73,4.07,1.58,2.12,2.97,3.8,4.39,5.29,2.23,2.33,5.12,3.67,8.6,3.96.11,0,.22.01.33.01h1.01c.07,0,.15,0,.22-.01,1.62-.1,3.22-.53,4.9-1.32,1.49-.7,2.73-1.6,3.8-2.74,1.4-1.5,2.81-3.25,4.33-5.35,1.59-2.2,2.79-4.14,3.78-6.09,1.1-2.17,2.26-4.88,2.53-8.44,0-.11.01-.22.01-.33v-.09s0-.43,0-.43v-.41s0-.03,0-.03v-.03c0-.06,0-.13,0-.19-.07-1.39-.39-2.71-.94-3.94v-.02c-.03-.05-.05-.1-.08-.16,0,0,0,0,0-.01-.01-.03-.03-.06-.04-.09-.45-.94-1.03-1.82-1.81-2.76-3.79-4.55-9.27-7.08-16.29-7.51-.08,0-.16,0-.24,0"/>
</svg>